<mxfile host="app.diagrams.net" agent="Mozilla/5.0 (Windows NT 10.0; Win64; x64) AppleWebKit/537.36 (KHTML, like Gecko) Chrome/136.0.0.0 Safari/537.36 Edg/136.0.0.0" version="27.0.6">
  <diagram name="PÃ¡gina-1" id="Uz97ylPjJ_wwzJIO0zC5">
    <mxGraphModel dx="3009" dy="2378" grid="1" gridSize="10" guides="1" tooltips="1" connect="1" arrows="1" fold="1" page="1" pageScale="1" pageWidth="827" pageHeight="1169" math="0" shadow="0">
      <root>
        <mxCell id="0" />
        <mxCell id="1" parent="0" />
        <mxCell id="RUQ-twvdtsaF-got7et5-1" value="Cadastro" style="swimlane;fontStyle=1;align=center;verticalAlign=middle;childLayout=stackLayout;horizontal=1;startSize=26;horizontalStack=0;resizeParent=1;resizeParentMax=0;resizeLast=0;collapsible=1;marginBottom=0;whiteSpace=wrap;html=1;fontFamily=Tahoma;fontColor=default;labelBackgroundColor=none;labelBorderColor=none;" parent="1" vertex="1">
          <mxGeometry x="290" y="80" width="160" height="108" as="geometry" />
        </mxCell>
        <mxCell id="RUQ-twvdtsaF-got7et5-2" value="- nome: String&amp;nbsp;&amp;nbsp;&lt;div&gt;&lt;span style=&quot;&quot;&gt;- endereco : Endereco&lt;/span&gt;&lt;/div&gt;&lt;div&gt;- telefone: Telefone&lt;br&gt;- email: String&lt;/div&gt;" style="text;strokeColor=none;fillColor=none;align=left;verticalAlign=top;spacingLeft=4;spacingRight=4;overflow=hidden;rotatable=0;points=[[0,0.5],[1,0.5]];portConstraint=eastwest;whiteSpace=wrap;html=1;fontFamily=Tahoma;fontColor=default;labelBackgroundColor=none;labelBorderColor=none;" parent="RUQ-twvdtsaF-got7et5-1" vertex="1">
          <mxGeometry y="26" width="160" height="74" as="geometry" />
        </mxCell>
        <mxCell id="RUQ-twvdtsaF-got7et5-3" value="" style="line;strokeWidth=1;fillColor=none;align=left;verticalAlign=middle;spacingTop=-1;spacingLeft=3;spacingRight=3;rotatable=0;labelPosition=right;points=[];portConstraint=eastwest;strokeColor=inherit;fontFamily=Tahoma;fontColor=default;labelBackgroundColor=none;labelBorderColor=none;" parent="RUQ-twvdtsaF-got7et5-1" vertex="1">
          <mxGeometry y="100" width="160" height="8" as="geometry" />
        </mxCell>
        <mxCell id="RUQ-twvdtsaF-got7et5-5" value="PessoaFisica" style="swimlane;fontStyle=1;align=center;verticalAlign=top;childLayout=stackLayout;horizontal=1;startSize=26;horizontalStack=0;resizeParent=1;resizeParentMax=0;resizeLast=0;collapsible=1;marginBottom=0;whiteSpace=wrap;html=1;fontFamily=Tahoma;fontColor=default;labelBackgroundColor=none;labelBorderColor=none;" parent="1" vertex="1">
          <mxGeometry x="390" y="300" width="160" height="144" as="geometry" />
        </mxCell>
        <mxCell id="RUQ-twvdtsaF-got7et5-6" value="- Cpf : String&lt;div&gt;&lt;div&gt;- sobrenome : String&lt;/div&gt;&lt;/div&gt;&lt;div&gt;-&amp;nbsp;&lt;span style=&quot;&quot;&gt;DataNascimento : Date&lt;/span&gt;&lt;/div&gt;&lt;div&gt;&lt;span style=&quot;&quot;&gt;- sexo : Sexo&lt;/span&gt;&lt;/div&gt;&lt;div&gt;&lt;span style=&quot;&quot;&gt;- estadoCivil : EstadoCivil&lt;/span&gt;&lt;/div&gt;&lt;div&gt;&lt;span style=&quot;&quot;&gt;&lt;br&gt;&lt;/span&gt;&lt;/div&gt;" style="text;strokeColor=none;fillColor=none;align=left;verticalAlign=top;spacingLeft=4;spacingRight=4;overflow=hidden;rotatable=0;points=[[0,0.5],[1,0.5]];portConstraint=eastwest;whiteSpace=wrap;html=1;fontFamily=Tahoma;fontColor=default;labelBackgroundColor=none;labelBorderColor=none;" parent="RUQ-twvdtsaF-got7et5-5" vertex="1">
          <mxGeometry y="26" width="160" height="84" as="geometry" />
        </mxCell>
        <mxCell id="RUQ-twvdtsaF-got7et5-7" value="" style="line;strokeWidth=1;fillColor=none;align=left;verticalAlign=middle;spacingTop=-1;spacingLeft=3;spacingRight=3;rotatable=0;labelPosition=right;points=[];portConstraint=eastwest;strokeColor=inherit;fontFamily=Tahoma;fontColor=default;labelBackgroundColor=none;labelBorderColor=none;" parent="RUQ-twvdtsaF-got7et5-5" vertex="1">
          <mxGeometry y="110" width="160" height="8" as="geometry" />
        </mxCell>
        <mxCell id="RUQ-twvdtsaF-got7et5-8" value="+ method(type): type" style="text;strokeColor=none;fillColor=none;align=left;verticalAlign=top;spacingLeft=4;spacingRight=4;overflow=hidden;rotatable=0;points=[[0,0.5],[1,0.5]];portConstraint=eastwest;whiteSpace=wrap;html=1;fontFamily=Tahoma;fontColor=default;labelBackgroundColor=none;labelBorderColor=none;" parent="RUQ-twvdtsaF-got7et5-5" vertex="1">
          <mxGeometry y="118" width="160" height="26" as="geometry" />
        </mxCell>
        <mxCell id="RUQ-twvdtsaF-got7et5-9" value="PessoaJuridica" style="swimlane;fontStyle=1;align=center;verticalAlign=top;childLayout=stackLayout;horizontal=1;startSize=26;horizontalStack=0;resizeParent=1;resizeParentMax=0;resizeLast=0;collapsible=1;marginBottom=0;whiteSpace=wrap;html=1;fontFamily=Tahoma;fontColor=default;labelBackgroundColor=none;labelBorderColor=none;" parent="1" vertex="1">
          <mxGeometry x="180" y="300" width="160" height="144" as="geometry" />
        </mxCell>
        <mxCell id="RUQ-twvdtsaF-got7et5-10" value="&lt;div&gt;&lt;span style=&quot;&quot;&gt;- cnpj : string&lt;/span&gt;&lt;/div&gt;&lt;div&gt;&lt;span style=&quot;&quot;&gt;- nomeFantasia : string&lt;/span&gt;&lt;/div&gt;&lt;div&gt;&lt;span style=&quot;&quot;&gt;- razaoSocial : string&lt;/span&gt;&lt;/div&gt;&lt;div&gt;&lt;span style=&quot;&quot;&gt;- ramoAtividade : string&lt;/span&gt;&lt;/div&gt;&lt;div&gt;&lt;span style=&quot;&quot;&gt;- cnae : string&lt;/span&gt;&lt;/div&gt;" style="text;strokeColor=none;fillColor=none;align=left;verticalAlign=top;spacingLeft=4;spacingRight=4;overflow=hidden;rotatable=0;points=[[0,0.5],[1,0.5]];portConstraint=eastwest;whiteSpace=wrap;html=1;fontFamily=Tahoma;fontColor=default;labelBackgroundColor=none;labelBorderColor=none;" parent="RUQ-twvdtsaF-got7et5-9" vertex="1">
          <mxGeometry y="26" width="160" height="84" as="geometry" />
        </mxCell>
        <mxCell id="RUQ-twvdtsaF-got7et5-11" value="" style="line;strokeWidth=1;fillColor=none;align=left;verticalAlign=middle;spacingTop=-1;spacingLeft=3;spacingRight=3;rotatable=0;labelPosition=right;points=[];portConstraint=eastwest;strokeColor=inherit;fontFamily=Tahoma;fontColor=default;labelBackgroundColor=none;labelBorderColor=none;" parent="RUQ-twvdtsaF-got7et5-9" vertex="1">
          <mxGeometry y="110" width="160" height="8" as="geometry" />
        </mxCell>
        <mxCell id="RUQ-twvdtsaF-got7et5-12" value="+ method(type): type" style="text;strokeColor=none;fillColor=none;align=left;verticalAlign=top;spacingLeft=4;spacingRight=4;overflow=hidden;rotatable=0;points=[[0,0.5],[1,0.5]];portConstraint=eastwest;whiteSpace=wrap;html=1;fontFamily=Tahoma;fontColor=default;labelBackgroundColor=none;labelBorderColor=none;" parent="RUQ-twvdtsaF-got7et5-9" vertex="1">
          <mxGeometry y="118" width="160" height="26" as="geometry" />
        </mxCell>
        <mxCell id="RUQ-twvdtsaF-got7et5-13" value="Extends" style="endArrow=block;endSize=16;endFill=0;html=1;rounded=0;exitX=0.415;exitY=-0.022;exitDx=0;exitDy=0;exitPerimeter=0;fontFamily=Tahoma;fontColor=default;labelBackgroundColor=none;labelBorderColor=none;entryX=0.602;entryY=1.212;entryDx=0;entryDy=0;entryPerimeter=0;" parent="1" source="RUQ-twvdtsaF-got7et5-5" edge="1" target="RUQ-twvdtsaF-got7et5-3">
          <mxGeometry x="-0.5" y="10" width="160" relative="1" as="geometry">
            <mxPoint x="370" y="250" as="sourcePoint" />
            <mxPoint x="420" y="230" as="targetPoint" />
            <mxPoint as="offset" />
          </mxGeometry>
        </mxCell>
        <mxCell id="RUQ-twvdtsaF-got7et5-14" value="Extends" style="endArrow=block;endSize=16;endFill=0;html=1;rounded=0;exitX=0.663;exitY=-0.01;exitDx=0;exitDy=0;exitPerimeter=0;fontFamily=Tahoma;fontColor=default;labelBackgroundColor=none;labelBorderColor=none;entryX=0.343;entryY=1.212;entryDx=0;entryDy=0;entryPerimeter=0;" parent="1" source="RUQ-twvdtsaF-got7et5-9" target="RUQ-twvdtsaF-got7et5-3" edge="1">
          <mxGeometry x="-0.5" y="10" width="160" relative="1" as="geometry">
            <mxPoint x="290" y="283" as="sourcePoint" />
            <mxPoint x="326.32000000000016" y="233.1500000000001" as="targetPoint" />
            <mxPoint as="offset" />
            <Array as="points">
              <mxPoint x="310" y="260" />
            </Array>
          </mxGeometry>
        </mxCell>
        <mxCell id="RUQ-twvdtsaF-got7et5-15" value="Telefone" style="swimlane;fontStyle=1;align=center;verticalAlign=top;childLayout=stackLayout;horizontal=1;startSize=26;horizontalStack=0;resizeParent=1;resizeParentMax=0;resizeLast=0;collapsible=1;marginBottom=0;whiteSpace=wrap;html=1;fontFamily=Tahoma;fontColor=default;labelBackgroundColor=none;labelBorderColor=none;" parent="1" vertex="1">
          <mxGeometry x="570" y="20" width="160" height="70" as="geometry" />
        </mxCell>
        <mxCell id="RUQ-twvdtsaF-got7et5-16" value="- ddd: string&lt;div&gt;- telefone: string&lt;/div&gt;" style="text;strokeColor=none;fillColor=none;align=left;verticalAlign=top;spacingLeft=4;spacingRight=4;overflow=hidden;rotatable=0;points=[[0,0.5],[1,0.5]];portConstraint=eastwest;whiteSpace=wrap;html=1;fontFamily=Tahoma;fontColor=default;labelBackgroundColor=none;labelBorderColor=none;" parent="RUQ-twvdtsaF-got7et5-15" vertex="1">
          <mxGeometry y="26" width="160" height="44" as="geometry" />
        </mxCell>
        <mxCell id="RUQ-twvdtsaF-got7et5-17" value="Endereco" style="swimlane;fontStyle=1;align=center;verticalAlign=top;childLayout=stackLayout;horizontal=1;startSize=26;horizontalStack=0;resizeParent=1;resizeParentMax=0;resizeLast=0;collapsible=1;marginBottom=0;whiteSpace=wrap;html=1;fontFamily=Tahoma;fontColor=default;labelBackgroundColor=none;labelBorderColor=none;" parent="1" vertex="1">
          <mxGeometry x="570" y="120" width="160" height="130" as="geometry" />
        </mxCell>
        <mxCell id="RUQ-twvdtsaF-got7et5-18" value="&lt;div&gt;- logradouro: String&amp;nbsp;&amp;nbsp;&lt;/div&gt;&lt;div&gt;- numero: String&amp;nbsp;&amp;nbsp;&lt;/div&gt;&lt;div&gt;- bairro: String&amp;nbsp;&amp;nbsp;&lt;/div&gt;&lt;div&gt;- cidade: String&amp;nbsp;&amp;nbsp;&lt;/div&gt;&lt;div&gt;- estado: String&amp;nbsp;&amp;nbsp;&lt;/div&gt;&lt;div&gt;- cep: String&amp;nbsp;&amp;nbsp;&lt;/div&gt;" style="text;strokeColor=none;fillColor=none;align=left;verticalAlign=top;spacingLeft=4;spacingRight=4;overflow=hidden;rotatable=0;points=[[0,0.5],[1,0.5]];portConstraint=eastwest;whiteSpace=wrap;html=1;fontFamily=Tahoma;fontColor=default;labelBackgroundColor=none;labelBorderColor=none;" parent="RUQ-twvdtsaF-got7et5-17" vertex="1">
          <mxGeometry y="26" width="160" height="104" as="geometry" />
        </mxCell>
        <mxCell id="RUQ-twvdtsaF-got7et5-19" value="" style="endArrow=none;html=1;edgeStyle=orthogonalEdgeStyle;rounded=0;exitX=0.673;exitY=-0.01;exitDx=0;exitDy=0;exitPerimeter=0;fontFamily=Tahoma;fontColor=default;labelBackgroundColor=none;labelBorderColor=none;" parent="1" source="RUQ-twvdtsaF-got7et5-1" edge="1">
          <mxGeometry relative="1" as="geometry">
            <mxPoint x="400" y="40" as="sourcePoint" />
            <mxPoint x="570" y="40" as="targetPoint" />
            <Array as="points">
              <mxPoint x="400" y="79" />
              <mxPoint x="400" y="40" />
            </Array>
          </mxGeometry>
        </mxCell>
        <mxCell id="RUQ-twvdtsaF-got7et5-20" value="parent" style="edgeLabel;resizable=0;html=1;align=left;verticalAlign=bottom;fontFamily=Tahoma;fontColor=default;labelBackgroundColor=none;labelBorderColor=none;" parent="RUQ-twvdtsaF-got7et5-19" connectable="0" vertex="1">
          <mxGeometry x="-1" relative="1" as="geometry">
            <mxPoint x="16" as="offset" />
          </mxGeometry>
        </mxCell>
        <mxCell id="RUQ-twvdtsaF-got7et5-21" value="child" style="edgeLabel;resizable=0;html=1;align=right;verticalAlign=bottom;fontFamily=Tahoma;fontColor=default;labelBackgroundColor=none;labelBorderColor=none;" parent="RUQ-twvdtsaF-got7et5-19" connectable="0" vertex="1">
          <mxGeometry x="1" relative="1" as="geometry">
            <mxPoint x="-10" as="offset" />
          </mxGeometry>
        </mxCell>
        <mxCell id="RUQ-twvdtsaF-got7et5-22" value="" style="endArrow=none;html=1;edgeStyle=orthogonalEdgeStyle;rounded=0;entryX=0;entryY=0.154;entryDx=0;entryDy=0;entryPerimeter=0;fontFamily=Tahoma;fontColor=default;labelBackgroundColor=none;labelBorderColor=none;" parent="1" target="RUQ-twvdtsaF-got7et5-17" edge="1">
          <mxGeometry relative="1" as="geometry">
            <mxPoint x="450" y="100" as="sourcePoint" />
            <mxPoint x="610" y="100" as="targetPoint" />
          </mxGeometry>
        </mxCell>
        <mxCell id="RUQ-twvdtsaF-got7et5-23" value="parent" style="edgeLabel;resizable=0;html=1;align=left;verticalAlign=bottom;fontFamily=Tahoma;fontColor=default;labelBackgroundColor=none;labelBorderColor=none;" parent="RUQ-twvdtsaF-got7et5-22" connectable="0" vertex="1">
          <mxGeometry x="-1" relative="1" as="geometry">
            <mxPoint x="10" as="offset" />
          </mxGeometry>
        </mxCell>
        <mxCell id="RUQ-twvdtsaF-got7et5-24" value="child" style="edgeLabel;resizable=0;html=1;align=right;verticalAlign=bottom;fontFamily=Tahoma;fontColor=default;labelBackgroundColor=none;labelBorderColor=none;" parent="RUQ-twvdtsaF-got7et5-22" connectable="0" vertex="1">
          <mxGeometry x="1" relative="1" as="geometry">
            <mxPoint x="-10" as="offset" />
          </mxGeometry>
        </mxCell>
        <mxCell id="RUQ-twvdtsaF-got7et5-25" value="&amp;lt;&amp;lt;enumeration&amp;gt;&amp;gt;&lt;div&gt;EstadoCivil&lt;/div&gt;" style="swimlane;fontStyle=1;align=center;verticalAlign=top;childLayout=stackLayout;horizontal=1;startSize=40;horizontalStack=0;resizeParent=1;resizeParentMax=0;resizeLast=0;collapsible=1;marginBottom=0;whiteSpace=wrap;html=1;fontFamily=Tahoma;fontColor=default;labelBackgroundColor=none;labelBorderColor=none;" parent="1" vertex="1">
          <mxGeometry x="620" y="470" width="160" height="124" as="geometry" />
        </mxCell>
        <mxCell id="RUQ-twvdtsaF-got7et5-26" value="SOLTEIRO&lt;div&gt;CASADO&lt;/div&gt;&lt;div&gt;DIVORCIADO&lt;/div&gt;&lt;div&gt;VIUVO&lt;/div&gt;&lt;div&gt;OUTRO&lt;/div&gt;" style="text;strokeColor=none;fillColor=none;align=left;verticalAlign=top;spacingLeft=4;spacingRight=4;overflow=hidden;rotatable=0;points=[[0,0.5],[1,0.5]];portConstraint=eastwest;whiteSpace=wrap;html=1;fontFamily=Tahoma;fontColor=default;labelBackgroundColor=none;labelBorderColor=none;" parent="RUQ-twvdtsaF-got7et5-25" vertex="1">
          <mxGeometry y="40" width="160" height="84" as="geometry" />
        </mxCell>
        <mxCell id="RUQ-twvdtsaF-got7et5-27" value="&amp;lt;&amp;lt;enumeration&amp;gt;&amp;gt;&lt;div&gt;Sexo&lt;/div&gt;" style="swimlane;fontStyle=1;align=center;verticalAlign=top;childLayout=stackLayout;horizontal=1;startSize=40;horizontalStack=0;resizeParent=1;resizeParentMax=0;resizeLast=0;collapsible=1;marginBottom=0;whiteSpace=wrap;html=1;fontFamily=Tahoma;fontColor=default;labelBackgroundColor=none;labelBorderColor=none;" parent="1" vertex="1">
          <mxGeometry x="620" y="322" width="160" height="100" as="geometry" />
        </mxCell>
        <mxCell id="RUQ-twvdtsaF-got7et5-28" value="FEMININO&lt;div&gt;MASCULINO&lt;/div&gt;&lt;div&gt;OUTRO&lt;/div&gt;" style="text;strokeColor=none;fillColor=none;align=left;verticalAlign=top;spacingLeft=4;spacingRight=4;overflow=hidden;rotatable=0;points=[[0,0.5],[1,0.5]];portConstraint=eastwest;whiteSpace=wrap;html=1;fontFamily=Tahoma;fontColor=default;labelBackgroundColor=none;labelBorderColor=none;" parent="RUQ-twvdtsaF-got7et5-27" vertex="1">
          <mxGeometry y="40" width="160" height="60" as="geometry" />
        </mxCell>
        <mxCell id="RUQ-twvdtsaF-got7et5-29" value="1" style="endArrow=open;html=1;endSize=12;startArrow=diamondThin;startSize=14;startFill=1;edgeStyle=orthogonalEdgeStyle;align=left;verticalAlign=bottom;rounded=0;entryX=1.003;entryY=0.103;entryDx=0;entryDy=0;entryPerimeter=0;exitX=0;exitY=0.25;exitDx=0;exitDy=0;" parent="1" source="RUQ-twvdtsaF-got7et5-27" target="RUQ-twvdtsaF-got7et5-5" edge="1">
          <mxGeometry x="-1" y="3" relative="1" as="geometry">
            <mxPoint x="760" y="299.5" as="sourcePoint" />
            <mxPoint x="800" y="189.5" as="targetPoint" />
          </mxGeometry>
        </mxCell>
        <mxCell id="RUQ-twvdtsaF-got7et5-30" value="1" style="endArrow=open;html=1;endSize=12;startArrow=diamondThin;startSize=14;startFill=1;edgeStyle=orthogonalEdgeStyle;align=left;verticalAlign=bottom;rounded=0;entryX=0.779;entryY=1.032;entryDx=0;entryDy=0;entryPerimeter=0;exitX=0.019;exitY=0.18;exitDx=0;exitDy=0;exitPerimeter=0;" parent="1" source="RUQ-twvdtsaF-got7et5-25" target="RUQ-twvdtsaF-got7et5-8" edge="1">
          <mxGeometry x="-1" y="3" relative="1" as="geometry">
            <mxPoint x="560" y="490" as="sourcePoint" />
            <mxPoint x="590" y="460" as="targetPoint" />
            <Array as="points">
              <mxPoint x="515" y="492" />
            </Array>
          </mxGeometry>
        </mxCell>
        <mxCell id="RUQ-twvdtsaF-got7et5-31" value="Campanha" style="swimlane;fontStyle=1;align=center;verticalAlign=top;childLayout=stackLayout;horizontal=1;startSize=26;horizontalStack=0;resizeParent=1;resizeParentMax=0;resizeLast=0;collapsible=1;marginBottom=0;whiteSpace=wrap;html=1;fontFamily=Tahoma;fontColor=default;labelBackgroundColor=none;labelBorderColor=none;" parent="1" vertex="1">
          <mxGeometry x="50" y="481.34" width="160" height="290" as="geometry" />
        </mxCell>
        <mxCell id="RUQ-twvdtsaF-got7et5-32" value="- nome : string&lt;div&gt;- descricao : string&lt;/div&gt;&lt;div&gt;- meta :&amp;nbsp;&lt;span style=&quot;background-color: transparent; color: light-dark(rgb(0, 0, 0), rgb(255, 255, 255));&quot;&gt;BigDecimal&lt;/span&gt;&lt;/div&gt;&lt;div&gt;&lt;span style=&quot;background-color: transparent; color: light-dark(rgb(0, 0, 0), rgb(255, 255, 255));&quot;&gt;- arrecadado :&amp;nbsp;&lt;/span&gt;&lt;span style=&quot;background-color: transparent; color: light-dark(rgb(0, 0, 0), rgb(255, 255, 255));&quot;&gt;BigDecimal&lt;/span&gt;&lt;/div&gt;&lt;div&gt;&lt;span style=&quot;background-color: transparent; color: light-dark(rgb(0, 0, 0), rgb(255, 255, 255));&quot;&gt;- prazo : Date&lt;/span&gt;&lt;/div&gt;&lt;div&gt;&lt;span style=&quot;background-color: transparent; color: light-dark(rgb(0, 0, 0), rgb(255, 255, 255));&quot;&gt;- status : StatusCampanha&lt;/span&gt;&lt;/div&gt;&lt;div&gt;&lt;span style=&quot;background-color: transparent; color: light-dark(rgb(0, 0, 0), rgb(255, 255, 255));&quot;&gt;- aprovador: Usuario&lt;/span&gt;&lt;/div&gt;&lt;div&gt;&lt;span style=&quot;background-color: transparent;&quot;&gt;&lt;div style=&quot;&quot;&gt;- instituicao: Instituicao&lt;/div&gt;&lt;div style=&quot;color: light-dark(rgb(0, 0, 0), rgb(255, 255, 255));&quot;&gt;&lt;br&gt;&lt;/div&gt;&lt;/span&gt;&lt;/div&gt;" style="text;strokeColor=none;fillColor=none;align=left;verticalAlign=top;spacingLeft=4;spacingRight=4;overflow=hidden;rotatable=0;points=[[0,0.5],[1,0.5]];portConstraint=eastwest;whiteSpace=wrap;html=1;fontFamily=Tahoma;fontColor=default;labelBackgroundColor=none;labelBorderColor=none;" parent="RUQ-twvdtsaF-got7et5-31" vertex="1">
          <mxGeometry y="26" width="160" height="124" as="geometry" />
        </mxCell>
        <mxCell id="RUQ-twvdtsaF-got7et5-33" value="" style="line;strokeWidth=1;fillColor=none;align=left;verticalAlign=middle;spacingTop=-1;spacingLeft=3;spacingRight=3;rotatable=0;labelPosition=right;points=[];portConstraint=eastwest;strokeColor=inherit;fontFamily=Tahoma;fontColor=default;labelBackgroundColor=none;labelBorderColor=none;" parent="RUQ-twvdtsaF-got7et5-31" vertex="1">
          <mxGeometry y="150" width="160" height="8" as="geometry" />
        </mxCell>
        <mxCell id="RUQ-twvdtsaF-got7et5-34" value="&lt;div&gt;+ adicionarDoacao(valor: BigDecimal): void&lt;/div&gt;&lt;div&gt;+ verificarMeta(): boolean&lt;/div&gt;&lt;div&gt;+ getProgressoPercentual(): BigDecimal&lt;/div&gt;&lt;div&gt;&lt;div&gt;+ encerrar(): void&lt;/div&gt;&lt;div&gt;+ estaAtiva(): boolean&lt;/div&gt;&lt;/div&gt;&lt;div&gt;+ criador : Usuario&lt;/div&gt;" style="text;strokeColor=none;fillColor=none;align=left;verticalAlign=top;spacingLeft=4;spacingRight=4;overflow=hidden;rotatable=0;points=[[0,0.5],[1,0.5]];portConstraint=eastwest;whiteSpace=wrap;html=1;fontFamily=Tahoma;fontColor=default;labelBackgroundColor=none;labelBorderColor=none;" parent="RUQ-twvdtsaF-got7et5-31" vertex="1">
          <mxGeometry y="158" width="160" height="132" as="geometry" />
        </mxCell>
        <mxCell id="RUQ-twvdtsaF-got7et5-35" value="&amp;lt;&amp;lt;enumeration&amp;gt;&amp;gt;&lt;div&gt;StatusCampanha&lt;/div&gt;" style="swimlane;fontStyle=1;align=center;verticalAlign=top;childLayout=stackLayout;horizontal=1;startSize=40;horizontalStack=0;resizeParent=1;resizeParentMax=0;resizeLast=0;collapsible=1;marginBottom=0;whiteSpace=wrap;html=1;fontFamily=Tahoma;fontColor=default;labelBackgroundColor=none;labelBorderColor=none;" parent="1" vertex="1">
          <mxGeometry x="-160" y="720" width="160" height="110" as="geometry" />
        </mxCell>
        <mxCell id="RUQ-twvdtsaF-got7et5-36" value="ATIVA&lt;div&gt;ENCERRADA&lt;/div&gt;&lt;div&gt;&lt;span style=&quot;background-color: transparent; color: light-dark(rgb(0, 0, 0), rgb(255, 255, 255));&quot;&gt;PENDENTE&lt;/span&gt;&lt;/div&gt;&lt;div&gt;&lt;span style=&quot;background-color: transparent; color: light-dark(rgb(0, 0, 0), rgb(255, 255, 255));&quot;&gt;PAUSADO&lt;/span&gt;&lt;/div&gt;" style="text;strokeColor=none;fillColor=none;align=left;verticalAlign=top;spacingLeft=4;spacingRight=4;overflow=hidden;rotatable=0;points=[[0,0.5],[1,0.5]];portConstraint=eastwest;whiteSpace=wrap;html=1;fontFamily=Tahoma;fontColor=default;labelBackgroundColor=none;labelBorderColor=none;" parent="RUQ-twvdtsaF-got7et5-35" vertex="1">
          <mxGeometry y="40" width="160" height="70" as="geometry" />
        </mxCell>
        <mxCell id="RUQ-twvdtsaF-got7et5-37" value="&amp;lt;&amp;lt;enumeration&amp;gt;&amp;gt;&lt;div&gt;TipoDoacao&lt;/div&gt;" style="swimlane;fontStyle=1;align=center;verticalAlign=top;childLayout=stackLayout;horizontal=1;startSize=40;horizontalStack=0;resizeParent=1;resizeParentMax=0;resizeLast=0;collapsible=1;marginBottom=0;whiteSpace=wrap;html=1;fontFamily=Tahoma;fontColor=default;labelBackgroundColor=none;labelBorderColor=none;" parent="1" vertex="1">
          <mxGeometry x="280" y="690" width="160" height="110" as="geometry" />
        </mxCell>
        <mxCell id="RUQ-twvdtsaF-got7et5-38" value="DINHEIRA&lt;div&gt;ROUPA&lt;/div&gt;&lt;div&gt;ALIMENTO&lt;/div&gt;&lt;div&gt;HIGIENE&lt;/div&gt;" style="text;strokeColor=none;fillColor=none;align=left;verticalAlign=top;spacingLeft=4;spacingRight=4;overflow=hidden;rotatable=0;points=[[0,0.5],[1,0.5]];portConstraint=eastwest;whiteSpace=wrap;html=1;fontFamily=Tahoma;fontColor=default;labelBackgroundColor=none;labelBorderColor=none;" parent="RUQ-twvdtsaF-got7et5-37" vertex="1">
          <mxGeometry y="40" width="160" height="70" as="geometry" />
        </mxCell>
        <mxCell id="RUQ-twvdtsaF-got7et5-39" value="&amp;lt;&amp;lt;enumeration&amp;gt;&amp;gt;&lt;div&gt;StatusDoacao&lt;/div&gt;" style="swimlane;fontStyle=1;align=center;verticalAlign=top;childLayout=stackLayout;horizontal=1;startSize=40;horizontalStack=0;resizeParent=1;resizeParentMax=0;resizeLast=0;collapsible=1;marginBottom=0;whiteSpace=wrap;html=1;fontFamily=Tahoma;fontColor=default;labelBackgroundColor=none;labelBorderColor=none;" parent="1" vertex="1">
          <mxGeometry x="620" y="651.34" width="160" height="100" as="geometry" />
        </mxCell>
        <mxCell id="RUQ-twvdtsaF-got7et5-40" value="PENDENTE&lt;div&gt;CONFIRMADA&lt;/div&gt;&lt;div&gt;RECUSADA&lt;/div&gt;" style="text;strokeColor=none;fillColor=none;align=left;verticalAlign=top;spacingLeft=4;spacingRight=4;overflow=hidden;rotatable=0;points=[[0,0.5],[1,0.5]];portConstraint=eastwest;whiteSpace=wrap;html=1;fontFamily=Tahoma;fontColor=default;labelBackgroundColor=none;labelBorderColor=none;" parent="RUQ-twvdtsaF-got7et5-39" vertex="1">
          <mxGeometry y="40" width="160" height="60" as="geometry" />
        </mxCell>
        <mxCell id="RUQ-twvdtsaF-got7et5-41" value="&amp;lt;&amp;lt;enumeration&amp;gt;&amp;gt;&lt;div&gt;TipoUsuario&lt;/div&gt;" style="swimlane;fontStyle=1;align=center;verticalAlign=top;childLayout=stackLayout;horizontal=1;startSize=40;horizontalStack=0;resizeParent=1;resizeParentMax=0;resizeLast=0;collapsible=1;marginBottom=0;whiteSpace=wrap;html=1;fontFamily=Tahoma;fontColor=default;labelBackgroundColor=none;labelBorderColor=none;" parent="1" vertex="1">
          <mxGeometry x="280" y="844" width="160" height="100" as="geometry" />
        </mxCell>
        <mxCell id="RUQ-twvdtsaF-got7et5-42" value="ADMIN&lt;div&gt;ATENDENTE&lt;/div&gt;&lt;div&gt;DOADOR&lt;/div&gt;" style="text;strokeColor=none;fillColor=none;align=left;verticalAlign=top;spacingLeft=4;spacingRight=4;overflow=hidden;rotatable=0;points=[[0,0.5],[1,0.5]];portConstraint=eastwest;whiteSpace=wrap;html=1;fontFamily=Tahoma;fontColor=default;labelBackgroundColor=none;labelBorderColor=none;" parent="RUQ-twvdtsaF-got7et5-41" vertex="1">
          <mxGeometry y="40" width="160" height="60" as="geometry" />
        </mxCell>
        <mxCell id="RUQ-twvdtsaF-got7et5-43" value="Doacao" style="swimlane;fontStyle=1;align=center;verticalAlign=top;childLayout=stackLayout;horizontal=1;startSize=26;horizontalStack=0;resizeParent=1;resizeParentMax=0;resizeLast=0;collapsible=1;marginBottom=0;whiteSpace=wrap;html=1;fontFamily=Tahoma;fontColor=default;labelBackgroundColor=none;labelBorderColor=none;" parent="1" vertex="1">
          <mxGeometry x="290" y="481.34" width="200" height="170" as="geometry" />
        </mxCell>
        <mxCell id="RUQ-twvdtsaF-got7et5-44" value="- campanha : Campanha&lt;div&gt;- doador : Doador&lt;/div&gt;&lt;div&gt;&lt;span style=&quot;background-color: transparent; color: light-dark(rgb(0, 0, 0), rgb(255, 255, 255));&quot;&gt;- tipo : tipoDoacao&lt;/span&gt;&lt;/div&gt;&lt;div&gt;- valorEstimado :&amp;nbsp;&lt;span style=&quot;background-color: transparent; color: light-dark(rgb(0, 0, 0), rgb(255, 255, 255));&quot;&gt;BigDecimal&lt;/span&gt;&lt;/div&gt;&lt;div&gt;&lt;span style=&quot;background-color: transparent; color: light-dark(rgb(0, 0, 0), rgb(255, 255, 255));&quot;&gt;- data : Date&lt;/span&gt;&lt;/div&gt;&lt;div&gt;&lt;span style=&quot;background-color: transparent; color: light-dark(rgb(0, 0, 0), rgb(255, 255, 255));&quot;&gt;- status : statusDoacao&lt;/span&gt;&lt;/div&gt;&lt;div&gt;&lt;span style=&quot;background-color: transparent; color: light-dark(rgb(0, 0, 0), rgb(255, 255, 255));&quot;&gt;&lt;br&gt;&lt;/span&gt;&lt;/div&gt;" style="text;strokeColor=none;fillColor=none;align=left;verticalAlign=top;spacingLeft=4;spacingRight=4;overflow=hidden;rotatable=0;points=[[0,0.5],[1,0.5]];portConstraint=eastwest;whiteSpace=wrap;html=1;fontFamily=Tahoma;fontColor=default;labelBackgroundColor=none;labelBorderColor=none;" parent="RUQ-twvdtsaF-got7et5-43" vertex="1">
          <mxGeometry y="26" width="200" height="94" as="geometry" />
        </mxCell>
        <mxCell id="RUQ-twvdtsaF-got7et5-45" value="" style="line;strokeWidth=1;fillColor=none;align=left;verticalAlign=middle;spacingTop=-1;spacingLeft=3;spacingRight=3;rotatable=0;labelPosition=right;points=[];portConstraint=eastwest;strokeColor=inherit;fontFamily=Tahoma;fontColor=default;labelBackgroundColor=none;labelBorderColor=none;" parent="RUQ-twvdtsaF-got7et5-43" vertex="1">
          <mxGeometry y="120" width="200" height="10" as="geometry" />
        </mxCell>
        <mxCell id="RUQ-twvdtsaF-got7et5-46" value="&lt;div&gt;+ confirmar(): void&lt;/div&gt;&lt;div&gt;+ recusar(): void&lt;/div&gt;" style="text;html=1;align=left;verticalAlign=middle;resizable=0;points=[];autosize=1;strokeColor=none;fillColor=none;" parent="RUQ-twvdtsaF-got7et5-43" vertex="1">
          <mxGeometry y="130" width="200" height="40" as="geometry" />
        </mxCell>
        <mxCell id="RUQ-twvdtsaF-got7et5-47" value="" style="endArrow=block;endFill=1;html=1;edgeStyle=orthogonalEdgeStyle;align=left;verticalAlign=top;rounded=0;exitX=-0.003;exitY=0.105;exitDx=0;exitDy=0;exitPerimeter=0;" parent="1" source="RUQ-twvdtsaF-got7et5-43" edge="1">
          <mxGeometry x="-1" relative="1" as="geometry">
            <mxPoint x="260" y="500" as="sourcePoint" />
            <mxPoint x="210" y="500" as="targetPoint" />
            <Array as="points">
              <mxPoint x="289" y="500" />
            </Array>
            <mxPoint as="offset" />
          </mxGeometry>
        </mxCell>
        <mxCell id="RUQ-twvdtsaF-got7et5-48" value="1" style="edgeLabel;resizable=0;html=1;align=left;verticalAlign=bottom;" parent="RUQ-twvdtsaF-got7et5-47" connectable="0" vertex="1">
          <mxGeometry x="-1" relative="1" as="geometry" />
        </mxCell>
        <mxCell id="RUQ-twvdtsaF-got7et5-49" value="" style="endArrow=block;endFill=1;html=1;edgeStyle=orthogonalEdgeStyle;align=left;verticalAlign=top;rounded=0;entryX=0.5;entryY=1;entryDx=0;entryDy=0;" parent="1" target="RUQ-twvdtsaF-got7et5-1" edge="1">
          <mxGeometry x="-1" relative="1" as="geometry">
            <mxPoint x="369.66" y="481.34" as="sourcePoint" />
            <mxPoint x="369.67999999999984" y="228.9920000000002" as="targetPoint" />
            <Array as="points" />
            <mxPoint as="offset" />
          </mxGeometry>
        </mxCell>
        <mxCell id="RUQ-twvdtsaF-got7et5-50" value="1" style="edgeLabel;resizable=0;html=1;align=left;verticalAlign=bottom;" parent="RUQ-twvdtsaF-got7et5-49" connectable="0" vertex="1">
          <mxGeometry x="-1" relative="1" as="geometry" />
        </mxCell>
        <mxCell id="RUQ-twvdtsaF-got7et5-51" value="Usuario_login" style="swimlane;fontStyle=1;align=center;verticalAlign=top;childLayout=stackLayout;horizontal=1;startSize=26;horizontalStack=0;resizeParent=1;resizeParentMax=0;resizeLast=0;collapsible=1;marginBottom=0;whiteSpace=wrap;html=1;fontFamily=Tahoma;fontColor=default;labelBackgroundColor=none;labelBorderColor=none;" parent="1" vertex="1">
          <mxGeometry x="60" y="840" width="190" height="148" as="geometry" />
        </mxCell>
        <mxCell id="RUQ-twvdtsaF-got7et5-52" value="- nome : string&lt;div&gt;- login : string&lt;/div&gt;&lt;div&gt;- senha : string&lt;/div&gt;&lt;div&gt;- pefil: TipoUsuario&lt;/div&gt;" style="text;strokeColor=none;fillColor=none;align=left;verticalAlign=top;spacingLeft=4;spacingRight=4;overflow=hidden;rotatable=0;points=[[0,0.5],[1,0.5]];portConstraint=eastwest;whiteSpace=wrap;html=1;fontFamily=Tahoma;fontColor=default;labelBackgroundColor=none;labelBorderColor=none;" parent="RUQ-twvdtsaF-got7et5-51" vertex="1">
          <mxGeometry y="26" width="190" height="74" as="geometry" />
        </mxCell>
        <mxCell id="RUQ-twvdtsaF-got7et5-53" value="" style="line;strokeWidth=1;fillColor=none;align=left;verticalAlign=middle;spacingTop=-1;spacingLeft=3;spacingRight=3;rotatable=0;labelPosition=right;points=[];portConstraint=eastwest;strokeColor=inherit;fontFamily=Tahoma;fontColor=default;labelBackgroundColor=none;labelBorderColor=none;" parent="RUQ-twvdtsaF-got7et5-51" vertex="1">
          <mxGeometry y="100" width="190" height="8" as="geometry" />
        </mxCell>
        <mxCell id="RUQ-twvdtsaF-got7et5-54" value="&lt;div&gt;+ autenticar(login: String,&amp;nbsp;&lt;/div&gt;&lt;div&gt;senha: String): boolean&lt;/div&gt;" style="text;html=1;align=left;verticalAlign=middle;resizable=0;points=[];autosize=1;strokeColor=none;fillColor=none;" parent="RUQ-twvdtsaF-got7et5-51" vertex="1">
          <mxGeometry y="108" width="190" height="40" as="geometry" />
        </mxCell>
        <mxCell id="RUQ-twvdtsaF-got7et5-55" value="" style="endArrow=block;endFill=1;html=1;edgeStyle=orthogonalEdgeStyle;align=left;verticalAlign=top;rounded=0;exitX=0.5;exitY=0.988;exitDx=0;exitDy=0;exitPerimeter=0;entryX=0.404;entryY=-0.002;entryDx=0;entryDy=0;entryPerimeter=0;" parent="1" source="RUQ-twvdtsaF-got7et5-34" target="RUQ-twvdtsaF-got7et5-51" edge="1">
          <mxGeometry x="-1" relative="1" as="geometry">
            <mxPoint x="179.5" y="760" as="sourcePoint" />
            <mxPoint x="100.5" y="761" as="targetPoint" />
            <Array as="points">
              <mxPoint x="130" y="820" />
              <mxPoint x="137" y="820" />
            </Array>
            <mxPoint as="offset" />
          </mxGeometry>
        </mxCell>
        <mxCell id="RUQ-twvdtsaF-got7et5-56" value="1" style="edgeLabel;resizable=0;html=1;align=left;verticalAlign=bottom;" parent="RUQ-twvdtsaF-got7et5-55" connectable="0" vertex="1">
          <mxGeometry x="-1" relative="1" as="geometry" />
        </mxCell>
        <mxCell id="RUQ-twvdtsaF-got7et5-57" value="1" style="endArrow=open;html=1;endSize=12;startArrow=diamondThin;startSize=14;startFill=1;edgeStyle=orthogonalEdgeStyle;align=left;verticalAlign=bottom;rounded=0;entryX=1.011;entryY=0.119;entryDx=0;entryDy=0;entryPerimeter=0;" parent="1" target="RUQ-twvdtsaF-got7et5-43" edge="1">
          <mxGeometry x="-1" y="3" relative="1" as="geometry">
            <mxPoint x="438" y="717" as="sourcePoint" />
            <mxPoint x="530" y="510" as="targetPoint" />
            <Array as="points">
              <mxPoint x="500" y="717" />
              <mxPoint x="500" y="502" />
            </Array>
          </mxGeometry>
        </mxCell>
        <mxCell id="RUQ-twvdtsaF-got7et5-58" value="1" style="endArrow=open;html=1;endSize=12;startArrow=diamondThin;startSize=14;startFill=1;edgeStyle=orthogonalEdgeStyle;align=left;verticalAlign=bottom;rounded=0;exitX=0.438;exitY=1.067;exitDx=0;exitDy=0;exitPerimeter=0;" parent="1" source="RUQ-twvdtsaF-got7et5-42" edge="1">
          <mxGeometry x="-1" y="3" relative="1" as="geometry">
            <mxPoint x="290" y="995" as="sourcePoint" />
            <mxPoint x="182" y="990" as="targetPoint" />
            <Array as="points">
              <mxPoint x="350" y="1020" />
              <mxPoint x="182" y="1020" />
            </Array>
          </mxGeometry>
        </mxCell>
        <mxCell id="RUQ-twvdtsaF-got7et5-59" value="1" style="endArrow=open;html=1;endSize=12;startArrow=diamondThin;startSize=14;startFill=1;edgeStyle=orthogonalEdgeStyle;align=left;verticalAlign=bottom;rounded=0;entryX=1.005;entryY=0.443;entryDx=0;entryDy=0;entryPerimeter=0;exitX=0.019;exitY=0.18;exitDx=0;exitDy=0;exitPerimeter=0;" parent="1" target="RUQ-twvdtsaF-got7et5-44" edge="1">
          <mxGeometry x="-1" y="3" relative="1" as="geometry">
            <mxPoint x="618" y="677" as="sourcePoint" />
            <mxPoint x="510" y="630" as="targetPoint" />
            <Array as="points">
              <mxPoint x="510" y="677" />
              <mxPoint x="510" y="549" />
            </Array>
          </mxGeometry>
        </mxCell>
        <mxCell id="RUQ-twvdtsaF-got7et5-60" value="1" style="endArrow=open;html=1;endSize=12;startArrow=diamondThin;startSize=14;startFill=1;edgeStyle=orthogonalEdgeStyle;align=left;verticalAlign=bottom;rounded=0;entryX=-0.02;entryY=0.031;entryDx=0;entryDy=0;entryPerimeter=0;exitX=0.5;exitY=0;exitDx=0;exitDy=0;" parent="1" source="RUQ-twvdtsaF-got7et5-35" target="RUQ-twvdtsaF-got7et5-31" edge="1">
          <mxGeometry x="-0.8941" y="-20" relative="1" as="geometry">
            <mxPoint x="-73" y="690" as="sourcePoint" />
            <mxPoint x="-200" y="562" as="targetPoint" />
            <Array as="points">
              <mxPoint x="-80" y="562" />
              <mxPoint y="562" />
              <mxPoint y="489" />
              <mxPoint x="20" y="489" />
              <mxPoint x="20" y="490" />
            </Array>
            <mxPoint as="offset" />
          </mxGeometry>
        </mxCell>
        <mxCell id="RUQ-twvdtsaF-got7et5-61" value="Instituicao" style="swimlane;fontStyle=1;align=center;verticalAlign=top;childLayout=stackLayout;horizontal=1;startSize=26;horizontalStack=0;resizeParent=1;resizeParentMax=0;resizeLast=0;collapsible=1;marginBottom=0;whiteSpace=wrap;html=1;fontFamily=Tahoma;fontColor=default;labelBackgroundColor=none;labelBorderColor=none;" parent="1" vertex="1">
          <mxGeometry x="-50" y="50" width="190" height="320" as="geometry" />
        </mxCell>
        <mxCell id="RUQ-twvdtsaF-got7et5-62" value="&lt;div&gt;- nome: String&lt;/div&gt;&lt;div&gt;- cnpj: String&lt;/div&gt;&lt;div&gt;- email: String&lt;/div&gt;&lt;div&gt;- telefone: Telefone&lt;/div&gt;&lt;div&gt;- endereco: Endereco&lt;/div&gt;&lt;div&gt;- responsavel: PessoaFisica&lt;/div&gt;&lt;div&gt;&lt;span style=&quot;background-color: transparent; color: light-dark(rgb(0, 0, 0), rgb(255, 255, 255));&quot;&gt;- dataCadastro: Date&lt;/span&gt;&lt;/div&gt;&lt;div&gt;- aprovada: boolean&lt;/div&gt;&lt;div&gt;&lt;br&gt;&lt;/div&gt;" style="text;strokeColor=none;fillColor=none;align=left;verticalAlign=top;spacingLeft=4;spacingRight=4;overflow=hidden;rotatable=0;points=[[0,0.5],[1,0.5]];portConstraint=eastwest;whiteSpace=wrap;html=1;fontFamily=Tahoma;fontColor=default;labelBackgroundColor=none;labelBorderColor=none;" parent="RUQ-twvdtsaF-got7et5-61" vertex="1">
          <mxGeometry y="26" width="190" height="134" as="geometry" />
        </mxCell>
        <mxCell id="RUQ-twvdtsaF-got7et5-63" value="" style="line;strokeWidth=1;fillColor=none;align=left;verticalAlign=middle;spacingTop=-1;spacingLeft=3;spacingRight=3;rotatable=0;labelPosition=right;points=[];portConstraint=eastwest;strokeColor=inherit;fontFamily=Tahoma;fontColor=default;labelBackgroundColor=none;labelBorderColor=none;" parent="RUQ-twvdtsaF-got7et5-61" vertex="1">
          <mxGeometry y="160" width="190" height="8" as="geometry" />
        </mxCell>
        <mxCell id="RUQ-twvdtsaF-got7et5-64" value="&lt;div&gt;+ cadastrarCampanha(c: Campanha): void&lt;/div&gt;&lt;div&gt;+ listarCampanhas(): List&amp;lt;Campanha&amp;gt;&lt;/div&gt;&lt;div&gt;+ editarDados(): void&lt;/div&gt;&lt;div&gt;+ verificarStatusAprovacao(): boolean&lt;/div&gt;&lt;div&gt;+ solicitarAprovacao(): void&lt;/div&gt;" style="text;strokeColor=none;fillColor=none;align=left;verticalAlign=top;spacingLeft=4;spacingRight=4;overflow=hidden;rotatable=0;points=[[0,0.5],[1,0.5]];portConstraint=eastwest;whiteSpace=wrap;html=1;fontFamily=Tahoma;fontColor=default;labelBackgroundColor=none;labelBorderColor=none;" parent="RUQ-twvdtsaF-got7et5-61" vertex="1">
          <mxGeometry y="168" width="190" height="152" as="geometry" />
        </mxCell>
        <mxCell id="RUQ-twvdtsaF-got7et5-65" value="1" style="edgeLabel;resizable=0;html=1;align=left;verticalAlign=bottom;" parent="1" connectable="0" vertex="1">
          <mxGeometry x="610" y="1078.4160000000002" as="geometry" />
        </mxCell>
        <mxCell id="RUQ-twvdtsaF-got7et5-66" value="1" style="endArrow=open;html=1;endSize=12;startArrow=diamondThin;startSize=14;startFill=1;edgeStyle=orthogonalEdgeStyle;align=left;verticalAlign=bottom;rounded=0;exitX=0.439;exitY=-0.005;exitDx=0;exitDy=0;exitPerimeter=0;entryX=1;entryY=0.077;entryDx=0;entryDy=0;entryPerimeter=0;" parent="1" source="RUQ-twvdtsaF-got7et5-61" target="RUQ-twvdtsaF-got7et5-17" edge="1">
          <mxGeometry x="-0.9567" y="-17" relative="1" as="geometry">
            <mxPoint x="50" y="10" as="sourcePoint" />
            <mxPoint x="770" y="130" as="targetPoint" />
            <Array as="points">
              <mxPoint x="33" y="-30" />
              <mxPoint x="800" y="-30" />
              <mxPoint x="800" y="130" />
            </Array>
            <mxPoint as="offset" />
          </mxGeometry>
        </mxCell>
        <mxCell id="RUQ-twvdtsaF-got7et5-67" value="1" style="endArrow=open;html=1;endSize=12;startArrow=diamondThin;startSize=14;startFill=1;edgeStyle=orthogonalEdgeStyle;align=left;verticalAlign=bottom;rounded=0;entryX=0.188;entryY=0;entryDx=0;entryDy=0;entryPerimeter=0;" parent="1" target="RUQ-twvdtsaF-got7et5-9" edge="1">
          <mxGeometry x="-0.9289" y="-9" relative="1" as="geometry">
            <mxPoint x="140" y="60" as="sourcePoint" />
            <mxPoint x="190" y="190" as="targetPoint" />
            <Array as="points">
              <mxPoint x="150" y="60" />
              <mxPoint x="150" y="61" />
              <mxPoint x="210" y="61" />
            </Array>
            <mxPoint as="offset" />
          </mxGeometry>
        </mxCell>
        <mxCell id="RUQ-twvdtsaF-got7et5-68" value="Use" style="endArrow=open;endSize=12;dashed=1;html=1;rounded=0;entryX=0.538;entryY=1.015;entryDx=0;entryDy=0;entryPerimeter=0;exitX=0.368;exitY=0.013;exitDx=0;exitDy=0;exitPerimeter=0;" parent="1" source="RUQ-twvdtsaF-got7et5-31" target="RUQ-twvdtsaF-got7et5-64" edge="1">
          <mxGeometry width="160" relative="1" as="geometry">
            <mxPoint x="80" y="480" as="sourcePoint" />
            <mxPoint x="50" y="443.44" as="targetPoint" />
          </mxGeometry>
        </mxCell>
      </root>
    </mxGraphModel>
  </diagram>
</mxfile>
